<mxfile host="app.diagrams.net" agent="Mozilla/5.0 (Windows NT 10.0; Win64; x64) AppleWebKit/537.36 (KHTML, like Gecko) Chrome/127.0.0.0 Safari/537.36" version="24.7.6">
  <diagram name="第 1 页" id="ww4SpD9q9hE-swhxdFp6">
    <mxGraphModel dx="1050" dy="565" grid="1" gridSize="10" guides="1" tooltips="1" connect="1" arrows="1" fold="1" page="1" pageScale="1" pageWidth="827" pageHeight="1169" math="0" shadow="0">
      <root>
        <mxCell id="0" />
        <mxCell id="1" parent="0" />
        <mxCell id="QamxqkGbcU3FXPbwEzF8-1" value="" style="html=1;fillColor=#f5f5f5;fontColor=#333333;strokeColor=#666666;" vertex="1" parent="1">
          <mxGeometry x="40" y="40" width="1680" height="1350" as="geometry" />
        </mxCell>
        <mxCell id="QamxqkGbcU3FXPbwEzF8-2" value="Component_tclComponentBase" style="swimlane;fontStyle=1;align=center;verticalAlign=top;childLayout=stackLayout;horizontal=1;startSize=26;horizontalStack=0;resizeParent=1;resizeParentMax=0;resizeLast=0;collapsible=1;marginBottom=0;fillColor=#ffe6cc;strokeColor=#d79b00;" vertex="1" parent="1">
          <mxGeometry x="670" y="1020" width="400" height="320" as="geometry">
            <mxRectangle x="630" y="1350" width="220" height="30" as="alternateBounds" />
          </mxGeometry>
        </mxCell>
        <mxCell id="QamxqkGbcU3FXPbwEzF8-3" value="+ bo_init_sts_:bool " style="text;strokeColor=#82b366;fillColor=#d5e8d4;align=left;verticalAlign=top;spacingLeft=4;spacingRight=4;overflow=hidden;rotatable=0;points=[[0,0.5],[1,0.5]];portConstraint=eastwest;" vertex="1" parent="QamxqkGbcU3FXPbwEzF8-2">
          <mxGeometry y="26" width="400" height="26" as="geometry" />
        </mxCell>
        <mxCell id="QamxqkGbcU3FXPbwEzF8-4" value="+ d_starttime_pre_:bool " style="text;strokeColor=#82b366;fillColor=#d5e8d4;align=left;verticalAlign=top;spacingLeft=4;spacingRight=4;overflow=hidden;rotatable=0;points=[[0,0.5],[1,0.5]];portConstraint=eastwest;" vertex="1" parent="QamxqkGbcU3FXPbwEzF8-2">
          <mxGeometry y="52" width="400" height="26" as="geometry" />
        </mxCell>
        <mxCell id="QamxqkGbcU3FXPbwEzF8-5" value="+ log_logger_:ara::log::Logger&amp;" style="text;strokeColor=#82b366;fillColor=#d5e8d4;align=left;verticalAlign=top;spacingLeft=4;spacingRight=4;overflow=hidden;rotatable=0;points=[[0,0.5],[1,0.5]];portConstraint=eastwest;" vertex="1" parent="QamxqkGbcU3FXPbwEzF8-2">
          <mxGeometry y="78" width="400" height="26" as="geometry" />
        </mxCell>
        <mxCell id="QamxqkGbcU3FXPbwEzF8-6" value="" style="line;strokeWidth=1;fillColor=none;align=left;verticalAlign=middle;spacingTop=-1;spacingLeft=3;spacingRight=3;rotatable=0;labelPosition=right;points=[];portConstraint=eastwest;" vertex="1" parent="QamxqkGbcU3FXPbwEzF8-2">
          <mxGeometry y="104" width="400" height="8" as="geometry" />
        </mxCell>
        <mxCell id="QamxqkGbcU3FXPbwEzF8-7" value="+ boInitialize(const char*): bool" style="text;strokeColor=#6c8ebf;fillColor=#dae8fc;align=left;verticalAlign=top;spacingLeft=4;spacingRight=4;overflow=hidden;rotatable=0;points=[[0,0.5],[1,0.5]];portConstraint=eastwest;" vertex="1" parent="QamxqkGbcU3FXPbwEzF8-2">
          <mxGeometry y="112" width="400" height="26" as="geometry" />
        </mxCell>
        <mxCell id="QamxqkGbcU3FXPbwEzF8-8" value="+ boProcess(const uint16_t): bool" style="text;strokeColor=#6c8ebf;fillColor=#dae8fc;align=left;verticalAlign=top;spacingLeft=4;spacingRight=4;overflow=hidden;rotatable=0;points=[[0,0.5],[1,0.5]];portConstraint=eastwest;" vertex="1" parent="QamxqkGbcU3FXPbwEzF8-2">
          <mxGeometry y="138" width="400" height="26" as="geometry" />
        </mxCell>
        <mxCell id="QamxqkGbcU3FXPbwEzF8-9" value="+ boReadJson(const char*，Json::Value): bool" style="text;strokeColor=#6c8ebf;fillColor=#dae8fc;align=left;verticalAlign=top;spacingLeft=4;spacingRight=4;overflow=hidden;rotatable=0;points=[[0,0.5],[1,0.5]];portConstraint=eastwest;" vertex="1" parent="QamxqkGbcU3FXPbwEzF8-2">
          <mxGeometry y="164" width="400" height="26" as="geometry" />
        </mxCell>
        <mxCell id="QamxqkGbcU3FXPbwEzF8-10" value="+ boParameterParser(const char*): bool" style="text;strokeColor=#6c8ebf;fillColor=#dae8fc;align=left;verticalAlign=top;spacingLeft=4;spacingRight=4;overflow=hidden;rotatable=0;points=[[0,0.5],[1,0.5]];portConstraint=eastwest;" vertex="1" parent="QamxqkGbcU3FXPbwEzF8-2">
          <mxGeometry y="190" width="400" height="26" as="geometry" />
        </mxCell>
        <mxCell id="QamxqkGbcU3FXPbwEzF8-11" value="+ vRegisterApService(): void" style="text;strokeColor=#6c8ebf;fillColor=#dae8fc;align=left;verticalAlign=top;spacingLeft=4;spacingRight=4;overflow=hidden;rotatable=0;points=[[0,0.5],[1,0.5]];portConstraint=eastwest;" vertex="1" parent="QamxqkGbcU3FXPbwEzF8-2">
          <mxGeometry y="216" width="400" height="26" as="geometry" />
        </mxCell>
        <mxCell id="QamxqkGbcU3FXPbwEzF8-12" value="+ vSentOutApEvent(): void" style="text;strokeColor=#6c8ebf;fillColor=#dae8fc;align=left;verticalAlign=top;spacingLeft=4;spacingRight=4;overflow=hidden;rotatable=0;points=[[0,0.5],[1,0.5]];portConstraint=eastwest;" vertex="1" parent="QamxqkGbcU3FXPbwEzF8-2">
          <mxGeometry y="242" width="400" height="26" as="geometry" />
        </mxCell>
        <mxCell id="QamxqkGbcU3FXPbwEzF8-13" value="+ boProc(): void" style="text;strokeColor=#6c8ebf;fillColor=#dae8fc;align=left;verticalAlign=top;spacingLeft=4;spacingRight=4;overflow=hidden;rotatable=0;points=[[0,0.5],[1,0.5]];portConstraint=eastwest;" vertex="1" parent="QamxqkGbcU3FXPbwEzF8-2">
          <mxGeometry y="268" width="400" height="26" as="geometry" />
        </mxCell>
        <mxCell id="QamxqkGbcU3FXPbwEzF8-14" value="+ boInit(): void" style="text;strokeColor=#6c8ebf;fillColor=#dae8fc;align=left;verticalAlign=top;spacingLeft=4;spacingRight=4;overflow=hidden;rotatable=0;points=[[0,0.5],[1,0.5]];portConstraint=eastwest;" vertex="1" parent="QamxqkGbcU3FXPbwEzF8-2">
          <mxGeometry y="294" width="400" height="26" as="geometry" />
        </mxCell>
        <mxCell id="QamxqkGbcU3FXPbwEzF8-15" value="tclLidarDriverApplication" style="swimlane;fontStyle=1;align=center;verticalAlign=top;childLayout=stackLayout;horizontal=1;startSize=26;horizontalStack=0;resizeParent=1;resizeParentMax=0;resizeLast=0;collapsible=1;marginBottom=0;fillColor=#ffe6cc;strokeColor=#d79b00;" vertex="1" parent="1">
          <mxGeometry x="460" y="330" width="410" height="658" as="geometry">
            <mxRectangle x="60" y="38" width="160" height="30" as="alternateBounds" />
          </mxGeometry>
        </mxCell>
        <mxCell id="QamxqkGbcU3FXPbwEzF8-16" value="+ cl_robosense_driver_: robosense::lidar::LidarDriver&lt;stPointType&gt;" style="text;strokeColor=#82b366;fillColor=#d5e8d4;align=left;verticalAlign=top;spacingLeft=4;spacingRight=4;overflow=hidden;rotatable=0;points=[[0,0.5],[1,0.5]];portConstraint=eastwest;" vertex="1" parent="QamxqkGbcU3FXPbwEzF8-15">
          <mxGeometry y="26" width="410" height="26" as="geometry" />
        </mxCell>
        <mxCell id="QamxqkGbcU3FXPbwEzF8-17" value="+ st_robosense_param_: robosense::lidar::RSDriverParam" style="text;strokeColor=#82b366;fillColor=#d5e8d4;align=left;verticalAlign=top;spacingLeft=4;spacingRight=4;overflow=hidden;rotatable=0;points=[[0,0.5],[1,0.5]];portConstraint=eastwest;" vertex="1" parent="QamxqkGbcU3FXPbwEzF8-15">
          <mxGeometry y="52" width="410" height="26" as="geometry" />
        </mxCell>
        <mxCell id="QamxqkGbcU3FXPbwEzF8-18" value="+ cl_fsm_: tclProviderFsm" style="text;strokeColor=#82b366;fillColor=#d5e8d4;align=left;verticalAlign=top;spacingLeft=4;spacingRight=4;overflow=hidden;rotatable=0;points=[[0,0.5],[1,0.5]];portConstraint=eastwest;" vertex="1" parent="QamxqkGbcU3FXPbwEzF8-15">
          <mxGeometry y="78" width="410" height="26" as="geometry" />
        </mxCell>
        <mxCell id="QamxqkGbcU3FXPbwEzF8-19" value="+ p_provider_lidar_: std::unique_ptr&lt;tclProviderLidar&gt;" style="text;strokeColor=#82b366;fillColor=#d5e8d4;align=left;verticalAlign=top;spacingLeft=4;spacingRight=4;overflow=hidden;rotatable=0;points=[[0,0.5],[1,0.5]];portConstraint=eastwest;" vertex="1" parent="QamxqkGbcU3FXPbwEzF8-15">
          <mxGeometry y="104" width="410" height="26" as="geometry" />
        </mxCell>
        <mxCell id="QamxqkGbcU3FXPbwEzF8-20" value="+ u32_instance_id_: string" style="text;strokeColor=#82b366;fillColor=#d5e8d4;align=left;verticalAlign=top;spacingLeft=4;spacingRight=4;overflow=hidden;rotatable=0;points=[[0,0.5],[1,0.5]];portConstraint=eastwest;" vertex="1" parent="QamxqkGbcU3FXPbwEzF8-15">
          <mxGeometry y="130" width="410" height="26" as="geometry" />
        </mxCell>
        <mxCell id="QamxqkGbcU3FXPbwEzF8-21" value="+ sourcePort_: uint32_t" style="text;strokeColor=#82b366;fillColor=#d5e8d4;align=left;verticalAlign=top;spacingLeft=4;spacingRight=4;overflow=hidden;rotatable=0;points=[[0,0.5],[1,0.5]];portConstraint=eastwest;" vertex="1" parent="QamxqkGbcU3FXPbwEzF8-15">
          <mxGeometry y="156" width="410" height="26" as="geometry" />
        </mxCell>
        <mxCell id="QamxqkGbcU3FXPbwEzF8-22" value="+ u32_fsm_instance_id_: uint32_t" style="text;strokeColor=#82b366;fillColor=#d5e8d4;align=left;verticalAlign=top;spacingLeft=4;spacingRight=4;overflow=hidden;rotatable=0;points=[[0,0.5],[1,0.5]];portConstraint=eastwest;" vertex="1" parent="QamxqkGbcU3FXPbwEzF8-15">
          <mxGeometry y="182" width="410" height="26" as="geometry" />
        </mxCell>
        <mxCell id="QamxqkGbcU3FXPbwEzF8-23" value="+ o_logger_: ara::log::Logger&amp;" style="text;strokeColor=#82b366;fillColor=#d5e8d4;align=left;verticalAlign=top;spacingLeft=4;spacingRight=4;overflow=hidden;rotatable=0;points=[[0,0.5],[1,0.5]];portConstraint=eastwest;" vertex="1" parent="QamxqkGbcU3FXPbwEzF8-15">
          <mxGeometry y="208" width="410" height="26" as="geometry" />
        </mxCell>
        <mxCell id="QamxqkGbcU3FXPbwEzF8-24" value="+ u8_lidar_receive_count_: uint8_t" style="text;strokeColor=#82b366;fillColor=#d5e8d4;align=left;verticalAlign=top;spacingLeft=4;spacingRight=4;overflow=hidden;rotatable=0;points=[[0,0.5],[1,0.5]];portConstraint=eastwest;" vertex="1" parent="QamxqkGbcU3FXPbwEzF8-15">
          <mxGeometry y="234" width="410" height="26" as="geometry" />
        </mxCell>
        <mxCell id="QamxqkGbcU3FXPbwEzF8-25" value="+ cl_lidar_receive_mutex_: std::mutex" style="text;strokeColor=#82b366;fillColor=#d5e8d4;align=left;verticalAlign=top;spacingLeft=4;spacingRight=4;overflow=hidden;rotatable=0;points=[[0,0.5],[1,0.5]];portConstraint=eastwest;" vertex="1" parent="QamxqkGbcU3FXPbwEzF8-15">
          <mxGeometry y="260" width="410" height="26" as="geometry" />
        </mxCell>
        <mxCell id="QamxqkGbcU3FXPbwEzF8-26" value="+ o_ros_pointcloud_origin_pub_: ros::Publisher" style="text;strokeColor=#82b366;fillColor=#d5e8d4;align=left;verticalAlign=top;spacingLeft=4;spacingRight=4;overflow=hidden;rotatable=0;points=[[0,0.5],[1,0.5]];portConstraint=eastwest;" vertex="1" parent="QamxqkGbcU3FXPbwEzF8-15">
          <mxGeometry y="286" width="410" height="26" as="geometry" />
        </mxCell>
        <mxCell id="QamxqkGbcU3FXPbwEzF8-27" value="+ u16_cycletime_ms_: uint16_t" style="text;strokeColor=#82b366;fillColor=#d5e8d4;align=left;verticalAlign=top;spacingLeft=4;spacingRight=4;overflow=hidden;rotatable=0;points=[[0,0.5],[1,0.5]];portConstraint=eastwest;" vertex="1" parent="QamxqkGbcU3FXPbwEzF8-15">
          <mxGeometry y="312" width="410" height="26" as="geometry" />
        </mxCell>
        <mxCell id="QamxqkGbcU3FXPbwEzF8-28" value="+ u16_lidar_count_: uint16_t" style="text;strokeColor=#82b366;fillColor=#d5e8d4;align=left;verticalAlign=top;spacingLeft=4;spacingRight=4;overflow=hidden;rotatable=0;points=[[0,0.5],[1,0.5]];portConstraint=eastwest;" vertex="1" parent="QamxqkGbcU3FXPbwEzF8-15">
          <mxGeometry y="338" width="410" height="26" as="geometry" />
        </mxCell>
        <mxCell id="QamxqkGbcU3FXPbwEzF8-29" value="+ st_last_time_: timespec" style="text;strokeColor=#82b366;fillColor=#d5e8d4;align=left;verticalAlign=top;spacingLeft=4;spacingRight=4;overflow=hidden;rotatable=0;points=[[0,0.5],[1,0.5]];portConstraint=eastwest;" vertex="1" parent="QamxqkGbcU3FXPbwEzF8-15">
          <mxGeometry y="364" width="410" height="26" as="geometry" />
        </mxCell>
        <mxCell id="QamxqkGbcU3FXPbwEzF8-30" value="+ st_now_time_: timespec" style="text;strokeColor=#82b366;fillColor=#d5e8d4;align=left;verticalAlign=top;spacingLeft=4;spacingRight=4;overflow=hidden;rotatable=0;points=[[0,0.5],[1,0.5]];portConstraint=eastwest;" vertex="1" parent="QamxqkGbcU3FXPbwEzF8-15">
          <mxGeometry y="390" width="410" height="26" as="geometry" />
        </mxCell>
        <mxCell id="QamxqkGbcU3FXPbwEzF8-31" value="+ st_sensor_time_: timespec" style="text;strokeColor=#82b366;fillColor=#d5e8d4;align=left;verticalAlign=top;spacingLeft=4;spacingRight=4;overflow=hidden;rotatable=0;points=[[0,0.5],[1,0.5]];portConstraint=eastwest;" vertex="1" parent="QamxqkGbcU3FXPbwEzF8-15">
          <mxGeometry y="416" width="410" height="26" as="geometry" />
        </mxCell>
        <mxCell id="QamxqkGbcU3FXPbwEzF8-32" value="+ st_now_gnss_time_: timespec" style="text;strokeColor=#82b366;fillColor=#d5e8d4;align=left;verticalAlign=top;spacingLeft=4;spacingRight=4;overflow=hidden;rotatable=0;points=[[0,0.5],[1,0.5]];portConstraint=eastwest;" vertex="1" parent="QamxqkGbcU3FXPbwEzF8-15">
          <mxGeometry y="442" width="410" height="26" as="geometry" />
        </mxCell>
        <mxCell id="QamxqkGbcU3FXPbwEzF8-33" value="+ d_last_time_: double" style="text;strokeColor=#82b366;fillColor=#d5e8d4;align=left;verticalAlign=top;spacingLeft=4;spacingRight=4;overflow=hidden;rotatable=0;points=[[0,0.5],[1,0.5]];portConstraint=eastwest;" vertex="1" parent="QamxqkGbcU3FXPbwEzF8-15">
          <mxGeometry y="468" width="410" height="26" as="geometry" />
        </mxCell>
        <mxCell id="QamxqkGbcU3FXPbwEzF8-34" value="+ d_now_time_: double" style="text;strokeColor=#82b366;fillColor=#d5e8d4;align=left;verticalAlign=top;spacingLeft=4;spacingRight=4;overflow=hidden;rotatable=0;points=[[0,0.5],[1,0.5]];portConstraint=eastwest;" vertex="1" parent="QamxqkGbcU3FXPbwEzF8-15">
          <mxGeometry y="494" width="410" height="26" as="geometry" />
        </mxCell>
        <mxCell id="QamxqkGbcU3FXPbwEzF8-35" value="+ d_interval_: double" style="text;strokeColor=#82b366;fillColor=#d5e8d4;align=left;verticalAlign=top;spacingLeft=4;spacingRight=4;overflow=hidden;rotatable=0;points=[[0,0.5],[1,0.5]];portConstraint=eastwest;" vertex="1" parent="QamxqkGbcU3FXPbwEzF8-15">
          <mxGeometry y="520" width="410" height="26" as="geometry" />
        </mxCell>
        <mxCell id="QamxqkGbcU3FXPbwEzF8-36" value="+ u16_nan_points_num_: uint16_t" style="text;strokeColor=#82b366;fillColor=#d5e8d4;align=left;verticalAlign=top;spacingLeft=4;spacingRight=4;overflow=hidden;rotatable=0;points=[[0,0.5],[1,0.5]];portConstraint=eastwest;" vertex="1" parent="QamxqkGbcU3FXPbwEzF8-15">
          <mxGeometry y="546" width="410" height="26" as="geometry" />
        </mxCell>
        <mxCell id="QamxqkGbcU3FXPbwEzF8-37" value="+ i_n_scan_: int" style="text;strokeColor=#82b366;fillColor=#d5e8d4;align=left;verticalAlign=top;spacingLeft=4;spacingRight=4;overflow=hidden;rotatable=0;points=[[0,0.5],[1,0.5]];portConstraint=eastwest;" vertex="1" parent="QamxqkGbcU3FXPbwEzF8-15">
          <mxGeometry y="572" width="410" height="26" as="geometry" />
        </mxCell>
        <mxCell id="QamxqkGbcU3FXPbwEzF8-38" value="+ i_horizon_scan_: int" style="text;strokeColor=#82b366;fillColor=#d5e8d4;align=left;verticalAlign=top;spacingLeft=4;spacingRight=4;overflow=hidden;rotatable=0;points=[[0,0.5],[1,0.5]];portConstraint=eastwest;" vertex="1" parent="QamxqkGbcU3FXPbwEzF8-15">
          <mxGeometry y="598" width="410" height="26" as="geometry" />
        </mxCell>
        <mxCell id="QamxqkGbcU3FXPbwEzF8-39" value="..." style="text;strokeColor=#82b366;fillColor=#d5e8d4;align=left;verticalAlign=top;spacingLeft=4;spacingRight=4;overflow=hidden;rotatable=0;points=[[0,0.5],[1,0.5]];portConstraint=eastwest;" vertex="1" parent="QamxqkGbcU3FXPbwEzF8-15">
          <mxGeometry y="624" width="410" height="26" as="geometry" />
        </mxCell>
        <mxCell id="QamxqkGbcU3FXPbwEzF8-40" value="" style="line;strokeWidth=1;fillColor=none;align=left;verticalAlign=middle;spacingTop=-1;spacingLeft=3;spacingRight=3;rotatable=0;labelPosition=right;points=[];portConstraint=eastwest;" vertex="1" parent="QamxqkGbcU3FXPbwEzF8-15">
          <mxGeometry y="650" width="410" height="8" as="geometry" />
        </mxCell>
        <mxCell id="QamxqkGbcU3FXPbwEzF8-41" value="tclRobosenseDriverApplication" style="swimlane;fontStyle=1;align=center;verticalAlign=top;childLayout=stackLayout;horizontal=1;startSize=26;horizontalStack=0;resizeParent=1;resizeParentMax=0;resizeLast=0;collapsible=1;marginBottom=0;fillColor=#ffe6cc;strokeColor=#d79b00;" vertex="1" parent="1">
          <mxGeometry x="1380" y="329" width="300" height="130" as="geometry" />
        </mxCell>
        <mxCell id="QamxqkGbcU3FXPbwEzF8-42" value="+ boInit(): bool" style="text;strokeColor=#6c8ebf;fillColor=#dae8fc;align=left;verticalAlign=top;spacingLeft=4;spacingRight=4;overflow=hidden;rotatable=0;points=[[0,0.5],[1,0.5]];portConstraint=eastwest;" vertex="1" parent="QamxqkGbcU3FXPbwEzF8-41">
          <mxGeometry y="26" width="300" height="26" as="geometry" />
        </mxCell>
        <mxCell id="QamxqkGbcU3FXPbwEzF8-43" value="+ vCallbackPointCloud(): void" style="text;strokeColor=#6c8ebf;fillColor=#dae8fc;align=left;verticalAlign=top;spacingLeft=4;spacingRight=4;overflow=hidden;rotatable=0;points=[[0,0.5],[1,0.5]];portConstraint=eastwest;" vertex="1" parent="QamxqkGbcU3FXPbwEzF8-41">
          <mxGeometry y="52" width="300" height="26" as="geometry" />
        </mxCell>
        <mxCell id="QamxqkGbcU3FXPbwEzF8-44" value="+ vCallbackException(const robosense::lidar::Error&amp;): void" style="text;strokeColor=#6c8ebf;fillColor=#dae8fc;align=left;verticalAlign=top;spacingLeft=4;spacingRight=4;overflow=hidden;rotatable=0;points=[[0,0.5],[1,0.5]];portConstraint=eastwest;" vertex="1" parent="QamxqkGbcU3FXPbwEzF8-41">
          <mxGeometry y="78" width="300" height="26" as="geometry" />
        </mxCell>
        <mxCell id="QamxqkGbcU3FXPbwEzF8-45" value="+ vReadPointCloud(const robosense::lidar::PointCloudMsg&lt;stPointType&gt;&amp;&#xa;): void" style="text;strokeColor=#6c8ebf;fillColor=#dae8fc;align=left;verticalAlign=top;spacingLeft=4;spacingRight=4;overflow=hidden;rotatable=0;points=[[0,0.5],[1,0.5]];portConstraint=eastwest;" vertex="1" parent="QamxqkGbcU3FXPbwEzF8-41">
          <mxGeometry y="104" width="300" height="26" as="geometry" />
        </mxCell>
        <mxCell id="QamxqkGbcU3FXPbwEzF8-46" value="main method" style="html=1;fillColor=#fff2cc;strokeColor=#d6b656;" vertex="1" parent="1">
          <mxGeometry x="780" y="100" width="190" height="50" as="geometry" />
        </mxCell>
        <mxCell id="QamxqkGbcU3FXPbwEzF8-47" value="tclLidarDriverApplication" style="swimlane;fontStyle=1;align=center;verticalAlign=top;childLayout=stackLayout;horizontal=1;startSize=26;horizontalStack=0;resizeParent=1;resizeParentMax=0;resizeLast=0;collapsible=1;marginBottom=0;fillColor=#ffe6cc;strokeColor=#d79b00;" vertex="1" parent="1">
          <mxGeometry x="870" y="330" width="410" height="494" as="geometry">
            <mxRectangle x="60" y="38" width="160" height="30" as="alternateBounds" />
          </mxGeometry>
        </mxCell>
        <mxCell id="QamxqkGbcU3FXPbwEzF8-48" value="+ boInit(): bool" style="text;strokeColor=#6c8ebf;fillColor=#dae8fc;align=left;verticalAlign=top;spacingLeft=4;spacingRight=4;overflow=hidden;rotatable=0;points=[[0,0.5],[1,0.5]];portConstraint=eastwest;" vertex="1" parent="QamxqkGbcU3FXPbwEzF8-47">
          <mxGeometry y="26" width="410" height="26" as="geometry" />
        </mxCell>
        <mxCell id="QamxqkGbcU3FXPbwEzF8-49" value="+ boParameterParser(const char*): bool" style="text;strokeColor=#6c8ebf;fillColor=#dae8fc;align=left;verticalAlign=top;spacingLeft=4;spacingRight=4;overflow=hidden;rotatable=0;points=[[0,0.5],[1,0.5]];portConstraint=eastwest;" vertex="1" parent="QamxqkGbcU3FXPbwEzF8-47">
          <mxGeometry y="52" width="410" height="26" as="geometry" />
        </mxCell>
        <mxCell id="QamxqkGbcU3FXPbwEzF8-50" value="+ vRegisterApService(): void" style="text;strokeColor=#6c8ebf;fillColor=#dae8fc;align=left;verticalAlign=top;spacingLeft=4;spacingRight=4;overflow=hidden;rotatable=0;points=[[0,0.5],[1,0.5]];portConstraint=eastwest;" vertex="1" parent="QamxqkGbcU3FXPbwEzF8-47">
          <mxGeometry y="78" width="410" height="26" as="geometry" />
        </mxCell>
        <mxCell id="QamxqkGbcU3FXPbwEzF8-51" value="+ boProc(): bool" style="text;strokeColor=#6c8ebf;fillColor=#dae8fc;align=left;verticalAlign=top;spacingLeft=4;spacingRight=4;overflow=hidden;rotatable=0;points=[[0,0.5],[1,0.5]];portConstraint=eastwest;" vertex="1" parent="QamxqkGbcU3FXPbwEzF8-47">
          <mxGeometry y="104" width="410" height="26" as="geometry" />
        </mxCell>
        <mxCell id="QamxqkGbcU3FXPbwEzF8-52" value="+ vSentOutApEvent(): void" style="text;strokeColor=#6c8ebf;fillColor=#dae8fc;align=left;verticalAlign=top;spacingLeft=4;spacingRight=4;overflow=hidden;rotatable=0;points=[[0,0.5],[1,0.5]];portConstraint=eastwest;" vertex="1" parent="QamxqkGbcU3FXPbwEzF8-47">
          <mxGeometry y="130" width="410" height="26" as="geometry" />
        </mxCell>
        <mxCell id="QamxqkGbcU3FXPbwEzF8-53" value="+ u16GetValueCycletimeMs(): uint16_t" style="text;strokeColor=#6c8ebf;fillColor=#dae8fc;align=left;verticalAlign=top;spacingLeft=4;spacingRight=4;overflow=hidden;rotatable=0;points=[[0,0.5],[1,0.5]];portConstraint=eastwest;" vertex="1" parent="QamxqkGbcU3FXPbwEzF8-47">
          <mxGeometry y="156" width="410" height="26" as="geometry" />
        </mxCell>
        <mxCell id="QamxqkGbcU3FXPbwEzF8-54" value="+ vFpsMonitor(): void" style="text;strokeColor=#6c8ebf;fillColor=#dae8fc;align=left;verticalAlign=top;spacingLeft=4;spacingRight=4;overflow=hidden;rotatable=0;points=[[0,0.5],[1,0.5]];portConstraint=eastwest;" vertex="1" parent="QamxqkGbcU3FXPbwEzF8-47">
          <mxGeometry y="182" width="410" height="26" as="geometry" />
        </mxCell>
        <mxCell id="QamxqkGbcU3FXPbwEzF8-55" value="+ vDataQualityMonitor(): void" style="text;strokeColor=#6c8ebf;fillColor=#dae8fc;align=left;verticalAlign=top;spacingLeft=4;spacingRight=4;overflow=hidden;rotatable=0;points=[[0,0.5],[1,0.5]];portConstraint=eastwest;" vertex="1" parent="QamxqkGbcU3FXPbwEzF8-47">
          <mxGeometry y="208" width="410" height="26" as="geometry" />
        </mxCell>
        <mxCell id="QamxqkGbcU3FXPbwEzF8-56" value="+ vSensorTimeMonitor(timespec *，timespec *，double): void" style="text;strokeColor=#6c8ebf;fillColor=#dae8fc;align=left;verticalAlign=top;spacingLeft=4;spacingRight=4;overflow=hidden;rotatable=0;points=[[0,0.5],[1,0.5]];portConstraint=eastwest;" vertex="1" parent="QamxqkGbcU3FXPbwEzF8-47">
          <mxGeometry y="234" width="410" height="26" as="geometry" />
        </mxCell>
        <mxCell id="QamxqkGbcU3FXPbwEzF8-57" value="+ vRosDataPublish(const tstDriverLidarMsg&amp;，const robosense::lidar::PointCloudMsg&lt;stPointType&gt;&amp;，ros::Publisher&amp;): void" style="text;strokeColor=#6c8ebf;fillColor=#dae8fc;align=left;verticalAlign=top;spacingLeft=4;spacingRight=4;overflow=hidden;rotatable=0;points=[[0,0.5],[1,0.5]];portConstraint=eastwest;" vertex="1" parent="QamxqkGbcU3FXPbwEzF8-47">
          <mxGeometry y="260" width="410" height="26" as="geometry" />
        </mxCell>
        <mxCell id="QamxqkGbcU3FXPbwEzF8-58" value="+ vRosOriginDataPublish(const tstDriverLidarMsg&amp;，const robosense::lidar::PointCloudMsg&lt;stPointType&gt;&amp;，ros::Publisher&amp;): void" style="text;strokeColor=#6c8ebf;fillColor=#dae8fc;align=left;verticalAlign=top;spacingLeft=4;spacingRight=4;overflow=hidden;rotatable=0;points=[[0,0.5],[1,0.5]];portConstraint=eastwest;" vertex="1" parent="QamxqkGbcU3FXPbwEzF8-47">
          <mxGeometry y="286" width="410" height="26" as="geometry" />
        </mxCell>
        <mxCell id="QamxqkGbcU3FXPbwEzF8-59" value="+ vFaultHandler(): void" style="text;strokeColor=#6c8ebf;fillColor=#dae8fc;align=left;verticalAlign=top;spacingLeft=4;spacingRight=4;overflow=hidden;rotatable=0;points=[[0,0.5],[1,0.5]];portConstraint=eastwest;" vertex="1" parent="QamxqkGbcU3FXPbwEzF8-47">
          <mxGeometry y="312" width="410" height="26" as="geometry" />
        </mxCell>
        <mxCell id="QamxqkGbcU3FXPbwEzF8-60" value="+ vDataReceiveMonitor(bool&amp;): void" style="text;strokeColor=#6c8ebf;fillColor=#dae8fc;align=left;verticalAlign=top;spacingLeft=4;spacingRight=4;overflow=hidden;rotatable=0;points=[[0,0.5],[1,0.5]];portConstraint=eastwest;" vertex="1" parent="QamxqkGbcU3FXPbwEzF8-47">
          <mxGeometry y="338" width="410" height="26" as="geometry" />
        </mxCell>
        <mxCell id="QamxqkGbcU3FXPbwEzF8-61" value="+ vFsmSend(uint8_t，std::string): void" style="text;strokeColor=#6c8ebf;fillColor=#dae8fc;align=left;verticalAlign=top;spacingLeft=4;spacingRight=4;overflow=hidden;rotatable=0;points=[[0,0.5],[1,0.5]];portConstraint=eastwest;" vertex="1" parent="QamxqkGbcU3FXPbwEzF8-47">
          <mxGeometry y="364" width="410" height="26" as="geometry" />
        </mxCell>
        <mxCell id="QamxqkGbcU3FXPbwEzF8-62" value="+ vAllocateMemory(): void" style="text;strokeColor=#6c8ebf;fillColor=#dae8fc;align=left;verticalAlign=top;spacingLeft=4;spacingRight=4;overflow=hidden;rotatable=0;points=[[0,0.5],[1,0.5]];portConstraint=eastwest;" vertex="1" parent="QamxqkGbcU3FXPbwEzF8-47">
          <mxGeometry y="390" width="410" height="26" as="geometry" />
        </mxCell>
        <mxCell id="QamxqkGbcU3FXPbwEzF8-63" value="+ vResetParameters(): void" style="text;strokeColor=#6c8ebf;fillColor=#dae8fc;align=left;verticalAlign=top;spacingLeft=4;spacingRight=4;overflow=hidden;rotatable=0;points=[[0,0.5],[1,0.5]];portConstraint=eastwest;" vertex="1" parent="QamxqkGbcU3FXPbwEzF8-47">
          <mxGeometry y="416" width="410" height="26" as="geometry" />
        </mxCell>
        <mxCell id="QamxqkGbcU3FXPbwEzF8-64" value="+ vReadPointCloud(const robosense::lidar::PointCloudMsg&lt;stPointType&gt;&amp;&#xa;): void" style="text;strokeColor=#6c8ebf;fillColor=#dae8fc;align=left;verticalAlign=top;spacingLeft=4;spacingRight=4;overflow=hidden;rotatable=0;points=[[0,0.5],[1,0.5]];portConstraint=eastwest;" vertex="1" parent="QamxqkGbcU3FXPbwEzF8-47">
          <mxGeometry y="442" width="410" height="26" as="geometry" />
        </mxCell>
        <mxCell id="QamxqkGbcU3FXPbwEzF8-65" value="+ vPublishCloud(const robosense::lidar::PointCloudMsg&lt;stPointType&gt;&amp;): void" style="text;strokeColor=#6c8ebf;fillColor=#dae8fc;align=left;verticalAlign=top;spacingLeft=4;spacingRight=4;overflow=hidden;rotatable=0;points=[[0,0.5],[1,0.5]];portConstraint=eastwest;" vertex="1" parent="QamxqkGbcU3FXPbwEzF8-47">
          <mxGeometry y="468" width="410" height="26" as="geometry" />
        </mxCell>
        <mxCell id="QamxqkGbcU3FXPbwEzF8-66" value="tclOusterDriverApplication" style="swimlane;fontStyle=1;align=center;verticalAlign=top;childLayout=stackLayout;horizontal=1;startSize=26;horizontalStack=0;resizeParent=1;resizeParentMax=0;resizeLast=0;collapsible=1;marginBottom=0;fillColor=#ffe6cc;strokeColor=#d79b00;" vertex="1" parent="1">
          <mxGeometry x="70" y="330" width="300" height="156" as="geometry" />
        </mxCell>
        <mxCell id="QamxqkGbcU3FXPbwEzF8-67" value="+ boInit(): bool" style="text;strokeColor=#6c8ebf;fillColor=#dae8fc;align=left;verticalAlign=top;spacingLeft=4;spacingRight=4;overflow=hidden;rotatable=0;points=[[0,0.5],[1,0.5]];portConstraint=eastwest;" vertex="1" parent="QamxqkGbcU3FXPbwEzF8-66">
          <mxGeometry y="26" width="300" height="26" as="geometry" />
        </mxCell>
        <mxCell id="QamxqkGbcU3FXPbwEzF8-68" value="+ vCallbackSensor(): void" style="text;strokeColor=#6c8ebf;fillColor=#dae8fc;align=left;verticalAlign=top;spacingLeft=4;spacingRight=4;overflow=hidden;rotatable=0;points=[[0,0.5],[1,0.5]];portConstraint=eastwest;" vertex="1" parent="QamxqkGbcU3FXPbwEzF8-66">
          <mxGeometry y="52" width="300" height="26" as="geometry" />
        </mxCell>
        <mxCell id="QamxqkGbcU3FXPbwEzF8-69" value="+ vCallbackPackets(): void" style="text;strokeColor=#6c8ebf;fillColor=#dae8fc;align=left;verticalAlign=top;spacingLeft=4;spacingRight=4;overflow=hidden;rotatable=0;points=[[0,0.5],[1,0.5]];portConstraint=eastwest;" vertex="1" parent="QamxqkGbcU3FXPbwEzF8-66">
          <mxGeometry y="78" width="300" height="26" as="geometry" />
        </mxCell>
        <mxCell id="QamxqkGbcU3FXPbwEzF8-70" value="+ vCallbackPointCloud(): void" style="text;strokeColor=#6c8ebf;fillColor=#dae8fc;align=left;verticalAlign=top;spacingLeft=4;spacingRight=4;overflow=hidden;rotatable=0;points=[[0,0.5],[1,0.5]];portConstraint=eastwest;" vertex="1" parent="QamxqkGbcU3FXPbwEzF8-66">
          <mxGeometry y="104" width="300" height="26" as="geometry" />
        </mxCell>
        <mxCell id="QamxqkGbcU3FXPbwEzF8-71" value="+ vReadPointCloud(const robosense::lidar::PointCloudMsg&lt;stPointType&gt;&amp;&#xa;): void" style="text;strokeColor=#6c8ebf;fillColor=#dae8fc;align=left;verticalAlign=top;spacingLeft=4;spacingRight=4;overflow=hidden;rotatable=0;points=[[0,0.5],[1,0.5]];portConstraint=eastwest;" vertex="1" parent="QamxqkGbcU3FXPbwEzF8-66">
          <mxGeometry y="130" width="300" height="26" as="geometry" />
        </mxCell>
        <mxCell id="QamxqkGbcU3FXPbwEzF8-72" value="tclLidarTypeApplication" style="swimlane;fontStyle=1;align=center;verticalAlign=top;childLayout=stackLayout;horizontal=1;startSize=26;horizontalStack=0;resizeParent=1;resizeParentMax=0;resizeLast=0;collapsible=1;marginBottom=0;fillColor=#ffe6cc;strokeColor=#d79b00;" vertex="1" parent="1">
          <mxGeometry x="725" y="210" width="300" height="60" as="geometry" />
        </mxCell>
        <mxCell id="QamxqkGbcU3FXPbwEzF8-73" value="" style="line;strokeWidth=1;fillColor=none;align=left;verticalAlign=middle;spacingTop=-1;spacingLeft=3;spacingRight=3;rotatable=0;labelPosition=right;points=[];portConstraint=eastwest;" vertex="1" parent="QamxqkGbcU3FXPbwEzF8-72">
          <mxGeometry y="26" width="300" height="8" as="geometry" />
        </mxCell>
        <mxCell id="QamxqkGbcU3FXPbwEzF8-74" value="+ sGetLIdarType(const char*): std::string" style="text;strokeColor=#6c8ebf;fillColor=#dae8fc;align=left;verticalAlign=top;spacingLeft=4;spacingRight=4;overflow=hidden;rotatable=0;points=[[0,0.5],[1,0.5]];portConstraint=eastwest;" vertex="1" parent="QamxqkGbcU3FXPbwEzF8-72">
          <mxGeometry y="34" width="300" height="26" as="geometry" />
        </mxCell>
        <mxCell id="QamxqkGbcU3FXPbwEzF8-75" value="" style="endArrow=none;html=1;edgeStyle=orthogonalEdgeStyle;rounded=0;exitX=0;exitY=0.5;exitDx=0;exitDy=0;entryX=1;entryY=0.5;entryDx=0;entryDy=0;" edge="1" parent="1" source="QamxqkGbcU3FXPbwEzF8-18" target="QamxqkGbcU3FXPbwEzF8-69">
          <mxGeometry relative="1" as="geometry">
            <mxPoint x="180" y="580" as="sourcePoint" />
            <mxPoint x="390" y="421" as="targetPoint" />
          </mxGeometry>
        </mxCell>
        <mxCell id="QamxqkGbcU3FXPbwEzF8-76" value="parent" style="edgeLabel;resizable=0;html=1;align=left;verticalAlign=bottom;" connectable="0" vertex="1" parent="QamxqkGbcU3FXPbwEzF8-75">
          <mxGeometry x="-1" relative="1" as="geometry">
            <mxPoint x="-40" as="offset" />
          </mxGeometry>
        </mxCell>
        <mxCell id="QamxqkGbcU3FXPbwEzF8-77" value="child" style="edgeLabel;resizable=0;html=1;align=right;verticalAlign=bottom;" connectable="0" vertex="1" parent="QamxqkGbcU3FXPbwEzF8-75">
          <mxGeometry x="1" relative="1" as="geometry">
            <mxPoint x="30" as="offset" />
          </mxGeometry>
        </mxCell>
        <mxCell id="QamxqkGbcU3FXPbwEzF8-78" value="" style="endArrow=none;html=1;edgeStyle=orthogonalEdgeStyle;rounded=0;entryX=0;entryY=0.5;entryDx=0;entryDy=0;" edge="1" parent="1" target="QamxqkGbcU3FXPbwEzF8-44">
          <mxGeometry relative="1" as="geometry">
            <mxPoint x="1280" y="420" as="sourcePoint" />
            <mxPoint x="400" y="431" as="targetPoint" />
          </mxGeometry>
        </mxCell>
        <mxCell id="QamxqkGbcU3FXPbwEzF8-79" value="parent" style="edgeLabel;resizable=0;html=1;align=left;verticalAlign=bottom;" connectable="0" vertex="1" parent="QamxqkGbcU3FXPbwEzF8-78">
          <mxGeometry x="-1" relative="1" as="geometry" />
        </mxCell>
        <mxCell id="QamxqkGbcU3FXPbwEzF8-80" value="child" style="edgeLabel;resizable=0;html=1;align=right;verticalAlign=bottom;" connectable="0" vertex="1" parent="QamxqkGbcU3FXPbwEzF8-78">
          <mxGeometry x="1" relative="1" as="geometry" />
        </mxCell>
        <mxCell id="QamxqkGbcU3FXPbwEzF8-81" value="" style="endArrow=none;html=1;edgeStyle=orthogonalEdgeStyle;rounded=0;exitX=0.5;exitY=0;exitDx=0;exitDy=0;entryX=0.003;entryY=0.969;entryDx=0;entryDy=0;entryPerimeter=0;" edge="1" parent="1" source="QamxqkGbcU3FXPbwEzF8-2" target="QamxqkGbcU3FXPbwEzF8-65">
          <mxGeometry relative="1" as="geometry">
            <mxPoint x="310" y="1160" as="sourcePoint" />
            <mxPoint x="470" y="1160" as="targetPoint" />
          </mxGeometry>
        </mxCell>
        <mxCell id="QamxqkGbcU3FXPbwEzF8-82" value="parent" style="edgeLabel;resizable=0;html=1;align=left;verticalAlign=bottom;" connectable="0" vertex="1" parent="QamxqkGbcU3FXPbwEzF8-81">
          <mxGeometry x="-1" relative="1" as="geometry" />
        </mxCell>
        <mxCell id="QamxqkGbcU3FXPbwEzF8-83" value="child" style="edgeLabel;resizable=0;html=1;align=right;verticalAlign=bottom;" connectable="0" vertex="1" parent="QamxqkGbcU3FXPbwEzF8-81">
          <mxGeometry x="1" relative="1" as="geometry">
            <mxPoint y="17" as="offset" />
          </mxGeometry>
        </mxCell>
        <mxCell id="QamxqkGbcU3FXPbwEzF8-84" value="Use" style="endArrow=open;endSize=12;dashed=1;html=1;rounded=0;exitX=0;exitY=0.5;exitDx=0;exitDy=0;entryX=0.5;entryY=0;entryDx=0;entryDy=0;" edge="1" parent="1" source="QamxqkGbcU3FXPbwEzF8-46" target="QamxqkGbcU3FXPbwEzF8-66">
          <mxGeometry width="160" relative="1" as="geometry">
            <mxPoint x="420" y="210" as="sourcePoint" />
            <mxPoint x="580" y="210" as="targetPoint" />
          </mxGeometry>
        </mxCell>
        <mxCell id="QamxqkGbcU3FXPbwEzF8-85" value="Use" style="endArrow=open;endSize=12;dashed=1;html=1;rounded=0;exitX=1;exitY=0.5;exitDx=0;exitDy=0;entryX=0.5;entryY=0;entryDx=0;entryDy=0;" edge="1" parent="1" source="QamxqkGbcU3FXPbwEzF8-46" target="QamxqkGbcU3FXPbwEzF8-41">
          <mxGeometry width="160" relative="1" as="geometry">
            <mxPoint x="930" y="170" as="sourcePoint" />
            <mxPoint x="1090" y="170" as="targetPoint" />
          </mxGeometry>
        </mxCell>
        <mxCell id="QamxqkGbcU3FXPbwEzF8-86" value="Use" style="endArrow=open;endSize=12;dashed=1;html=1;rounded=0;exitX=0.5;exitY=1;exitDx=0;exitDy=0;" edge="1" parent="1" source="QamxqkGbcU3FXPbwEzF8-46" target="QamxqkGbcU3FXPbwEzF8-72">
          <mxGeometry width="160" relative="1" as="geometry">
            <mxPoint x="920" y="180" as="sourcePoint" />
            <mxPoint x="1080" y="180" as="targetPoint" />
          </mxGeometry>
        </mxCell>
        <mxCell id="QamxqkGbcU3FXPbwEzF8-87" value="" style="html=1;fillColor=#f5f5f5;fontColor=#333333;strokeColor=#666666;" vertex="1" parent="1">
          <mxGeometry x="70" y="1430" width="1240" height="858" as="geometry" />
        </mxCell>
        <mxCell id="QamxqkGbcU3FXPbwEzF8-137" value="cam_application" style="swimlane;fontStyle=1;align=center;verticalAlign=top;childLayout=stackLayout;horizontal=1;startSize=26;horizontalStack=0;resizeParent=1;resizeParentMax=0;resizeLast=0;collapsible=1;marginBottom=0;fillColor=#ffe6cc;strokeColor=#d79b00;" vertex="1" parent="1">
          <mxGeometry x="550" y="1606" width="340" height="372" as="geometry">
            <mxRectangle x="550" y="1606" width="130" height="30" as="alternateBounds" />
          </mxGeometry>
        </mxCell>
        <mxCell id="QamxqkGbcU3FXPbwEzF8-138" value="+ s_cam_map_dir_: string" style="text;strokeColor=#82b366;fillColor=#d5e8d4;align=left;verticalAlign=top;spacingLeft=4;spacingRight=4;overflow=hidden;rotatable=0;points=[[0,0.5],[1,0.5]];portConstraint=eastwest;" vertex="1" parent="QamxqkGbcU3FXPbwEzF8-137">
          <mxGeometry y="26" width="340" height="26" as="geometry" />
        </mxCell>
        <mxCell id="QamxqkGbcU3FXPbwEzF8-139" value="+ s_user_conf_path_: string" style="text;strokeColor=#82b366;fillColor=#d5e8d4;align=left;verticalAlign=top;spacingLeft=4;spacingRight=4;overflow=hidden;rotatable=0;points=[[0,0.5],[1,0.5]];portConstraint=eastwest;" vertex="1" parent="QamxqkGbcU3FXPbwEzF8-137">
          <mxGeometry y="52" width="340" height="26" as="geometry" />
        </mxCell>
        <mxCell id="QamxqkGbcU3FXPbwEzF8-140" value="+ map_userConf_: map" style="text;strokeColor=#82b366;fillColor=#d5e8d4;align=left;verticalAlign=top;spacingLeft=4;spacingRight=4;overflow=hidden;rotatable=0;points=[[0,0.5],[1,0.5]];portConstraint=eastwest;" vertex="1" parent="QamxqkGbcU3FXPbwEzF8-137">
          <mxGeometry y="78" width="340" height="26" as="geometry" />
        </mxCell>
        <mxCell id="QamxqkGbcU3FXPbwEzF8-141" value="+ map_userConf_ADB_: map" style="text;strokeColor=#82b366;fillColor=#d5e8d4;align=left;verticalAlign=top;spacingLeft=4;spacingRight=4;overflow=hidden;rotatable=0;points=[[0,0.5],[1,0.5]];portConstraint=eastwest;" vertex="1" parent="QamxqkGbcU3FXPbwEzF8-137">
          <mxGeometry y="104" width="340" height="26" as="geometry" />
        </mxCell>
        <mxCell id="QamxqkGbcU3FXPbwEzF8-142" value="+ map_slotId_ : map" style="text;strokeColor=#82b366;fillColor=#d5e8d4;align=left;verticalAlign=top;spacingLeft=4;spacingRight=4;overflow=hidden;rotatable=0;points=[[0,0.5],[1,0.5]];portConstraint=eastwest;" vertex="1" parent="QamxqkGbcU3FXPbwEzF8-137">
          <mxGeometry y="130" width="340" height="26" as="geometry" />
        </mxCell>
        <mxCell id="QamxqkGbcU3FXPbwEzF8-143" value="+ po_serviceHandle_::FindServiceHandle" style="text;strokeColor=#82b366;fillColor=#d5e8d4;align=left;verticalAlign=top;spacingLeft=4;spacingRight=4;overflow=hidden;rotatable=0;points=[[0,0.5],[1,0.5]];portConstraint=eastwest;" vertex="1" parent="QamxqkGbcU3FXPbwEzF8-137">
          <mxGeometry y="156" width="340" height="26" as="geometry" />
        </mxCell>
        <mxCell id="QamxqkGbcU3FXPbwEzF8-144" value="+ po_proxy_: unique_ptr" style="text;strokeColor=#82b366;fillColor=#d5e8d4;align=left;verticalAlign=top;spacingLeft=4;spacingRight=4;overflow=hidden;rotatable=0;points=[[0,0.5],[1,0.5]];portConstraint=eastwest;" vertex="1" parent="QamxqkGbcU3FXPbwEzF8-137">
          <mxGeometry y="182" width="340" height="26" as="geometry" />
        </mxCell>
        <mxCell id="QamxqkGbcU3FXPbwEzF8-145" value="+ cl_exec_client_: ExecutionClient " style="text;strokeColor=#82b366;fillColor=#d5e8d4;align=left;verticalAlign=top;spacingLeft=4;spacingRight=4;overflow=hidden;rotatable=0;points=[[0,0.5],[1,0.5]];portConstraint=eastwest;" vertex="1" parent="QamxqkGbcU3FXPbwEzF8-137">
          <mxGeometry y="208" width="340" height="26" as="geometry" />
        </mxCell>
        <mxCell id="QamxqkGbcU3FXPbwEzF8-146" value="+ cl_provider_cam_: unique_ptr" style="text;strokeColor=#82b366;fillColor=#d5e8d4;align=left;verticalAlign=top;spacingLeft=4;spacingRight=4;overflow=hidden;rotatable=0;points=[[0,0.5],[1,0.5]];portConstraint=eastwest;" vertex="1" parent="QamxqkGbcU3FXPbwEzF8-137">
          <mxGeometry y="234" width="340" height="26" as="geometry" />
        </mxCell>
        <mxCell id="QamxqkGbcU3FXPbwEzF8-147" value="+ cl_provider_fsm_: unique_ptr" style="text;strokeColor=#82b366;fillColor=#d5e8d4;align=left;verticalAlign=top;spacingLeft=4;spacingRight=4;overflow=hidden;rotatable=0;points=[[0,0.5],[1,0.5]];portConstraint=eastwest;" vertex="1" parent="QamxqkGbcU3FXPbwEzF8-137">
          <mxGeometry y="260" width="340" height="26" as="geometry" />
        </mxCell>
        <mxCell id="QamxqkGbcU3FXPbwEzF8-148" value="......" style="text;strokeColor=#82b366;fillColor=#d5e8d4;align=left;verticalAlign=top;spacingLeft=4;spacingRight=4;overflow=hidden;rotatable=0;points=[[0,0.5],[1,0.5]];portConstraint=eastwest;" vertex="1" parent="QamxqkGbcU3FXPbwEzF8-137">
          <mxGeometry y="286" width="340" height="26" as="geometry" />
        </mxCell>
        <mxCell id="QamxqkGbcU3FXPbwEzF8-149" value="" style="line;strokeWidth=1;fillColor=none;align=left;verticalAlign=middle;spacingTop=-1;spacingLeft=3;spacingRight=3;rotatable=0;labelPosition=right;points=[];portConstraint=eastwest;" vertex="1" parent="QamxqkGbcU3FXPbwEzF8-137">
          <mxGeometry y="312" width="340" height="8" as="geometry" />
        </mxCell>
        <mxCell id="QamxqkGbcU3FXPbwEzF8-150" value="+ tclDriverCam(const char* c_json_file_path): void" style="text;strokeColor=#6c8ebf;fillColor=#dae8fc;align=left;verticalAlign=top;spacingLeft=4;spacingRight=4;overflow=hidden;rotatable=0;points=[[0,0.5],[1,0.5]];portConstraint=eastwest;" vertex="1" parent="QamxqkGbcU3FXPbwEzF8-137">
          <mxGeometry y="320" width="340" height="26" as="geometry" />
        </mxCell>
        <mxCell id="QamxqkGbcU3FXPbwEzF8-151" value="+ vParameterParser(const char* c_json_file_path): void" style="text;strokeColor=#6c8ebf;fillColor=#dae8fc;align=left;verticalAlign=top;spacingLeft=4;spacingRight=4;overflow=hidden;rotatable=0;points=[[0,0.5],[1,0.5]];portConstraint=eastwest;" vertex="1" parent="QamxqkGbcU3FXPbwEzF8-137">
          <mxGeometry y="346" width="340" height="26" as="geometry" />
        </mxCell>
        <mxCell id="QamxqkGbcU3FXPbwEzF8-152" value="main method" style="rounded=0;whiteSpace=wrap;html=1;fillColor=#fff2cc;strokeColor=#d6b656;" vertex="1" parent="1">
          <mxGeometry x="160" y="1824" width="300" height="70" as="geometry" />
        </mxCell>
        <mxCell id="QamxqkGbcU3FXPbwEzF8-153" value="" style="endArrow=diamondThin;endFill=0;endSize=24;html=1;rounded=0;entryX=1;entryY=0.5;entryDx=0;entryDy=0;" edge="1" parent="1" target="QamxqkGbcU3FXPbwEzF8-152">
          <mxGeometry width="160" relative="1" as="geometry">
            <mxPoint x="550" y="1860" as="sourcePoint" />
            <mxPoint x="670" y="1581" as="targetPoint" />
          </mxGeometry>
        </mxCell>
        <mxCell id="QamxqkGbcU3FXPbwEzF8-154" value="+ vInit(): void" style="text;strokeColor=#6c8ebf;fillColor=#dae8fc;align=left;verticalAlign=top;spacingLeft=4;spacingRight=4;overflow=hidden;rotatable=0;points=[[0,0.5],[1,0.5]];portConstraint=eastwest;" vertex="1" parent="1">
          <mxGeometry x="550" y="1978" width="340" height="26" as="geometry" />
        </mxCell>
        <mxCell id="QamxqkGbcU3FXPbwEzF8-155" value="+ vRegisterApService(): void" style="text;strokeColor=#6c8ebf;fillColor=#dae8fc;align=left;verticalAlign=top;spacingLeft=4;spacingRight=4;overflow=hidden;rotatable=0;points=[[0,0.5],[1,0.5]];portConstraint=eastwest;" vertex="1" parent="1">
          <mxGeometry x="550" y="2004" width="340" height="26" as="geometry" />
        </mxCell>
        <mxCell id="QamxqkGbcU3FXPbwEzF8-156" value="+ vGetCamServiceAvailabilityCallback(...): void" style="text;strokeColor=#6c8ebf;fillColor=#dae8fc;align=left;verticalAlign=top;spacingLeft=4;spacingRight=4;overflow=hidden;rotatable=0;points=[[0,0.5],[1,0.5]];portConstraint=eastwest;" vertex="1" parent="1">
          <mxGeometry x="550" y="2030" width="340" height="26" as="geometry" />
        </mxCell>
        <mxCell id="QamxqkGbcU3FXPbwEzF8-157" value="+ vGetCamEventCallback(int i_cam_id): void" style="text;strokeColor=#6c8ebf;fillColor=#dae8fc;align=left;verticalAlign=top;spacingLeft=4;spacingRight=4;overflow=hidden;rotatable=0;points=[[0,0.5],[1,0.5]];portConstraint=eastwest;" vertex="1" parent="1">
          <mxGeometry x="550" y="2056" width="340" height="22" as="geometry" />
        </mxCell>
      </root>
    </mxGraphModel>
  </diagram>
</mxfile>
